<mxfile host="app.diagrams.net" modified="2023-11-16T03:33:33.628Z" agent="Mozilla/5.0 (Macintosh; Intel Mac OS X 10_15_7) AppleWebKit/605.1.15 (KHTML, like Gecko) Version/17.0 Safari/605.1.15" version="22.1.2" etag="GqIiQR5kHJ7D1VFunIKW" type="github">
  <diagram name="Page-1" id="8X0diker4BlEq4PdUVHe">
    <mxGraphModel>
      <root>
        <mxCell id="0" />
        <mxCell id="1" parent="0" />
      </root>
    </mxGraphModel>
  </diagram>
</mxfile>
